<?xml version="1.0" encoding="UTF-8" standalone="no"?>
<!-- Generator: Adobe Illustrator 16.0.0, SVG Export Plug-In . SVG Version: 6.00 Build 0)  -->

<svg
   xmlns:dc="http://purl.org/dc/elements/1.1/"
   xmlns:cc="http://creativecommons.org/ns#"
   xmlns:rdf="http://www.w3.org/1999/02/22-rdf-syntax-ns#"
   xmlns:svg="http://www.w3.org/2000/svg"
   xmlns="http://www.w3.org/2000/svg"
   xmlns:sodipodi="http://sodipodi.sourceforge.net/DTD/sodipodi-0.dtd"
   xmlns:inkscape="http://www.inkscape.org/namespaces/inkscape"
   version="1.0"
   x="0px"
   y="0px"
   width="48px"
   height="48px"
   viewBox="0 0 48 48"
   enable-background="new 0 0 48 48"
   xml:space="preserve"
   id="svg53"
   sodipodi:docname="app.svg"
   inkscape:version="0.92.2 5c3e80d, 2017-08-06"
   inkscape:export-filename="/home/nailxx/Dropbox/xod/art/app-icon/app.svg.png"
   inkscape:export-xdpi="96"
   inkscape:export-ydpi="96"><metadata
     id="metadata59"><rdf:RDF><cc:Work
         rdf:about=""><dc:format>image/svg+xml</dc:format><dc:type
           rdf:resource="http://purl.org/dc/dcmitype/StillImage" /><dc:title></dc:title></cc:Work></rdf:RDF></metadata><defs
     id="defs57" /><sodipodi:namedview
     pagecolor="#ffffff"
     bordercolor="#666666"
     borderopacity="1"
     objecttolerance="10"
     gridtolerance="10"
     guidetolerance="10"
     inkscape:pageopacity="0"
     inkscape:pageshadow="2"
     inkscape:window-width="2091"
     inkscape:window-height="978"
     id="namedview55"
     showgrid="false"
     inkscape:zoom="4.9166667"
     inkscape:cx="-14.974071"
     inkscape:cy="-20.55277"
     inkscape:window-x="269"
     inkscape:window-y="173"
     inkscape:window-maximized="0"
     inkscape:current-layer="svg53" /><g
     id="Layer_2"><linearGradient
       id="SVGID_1_"
       gradientUnits="userSpaceOnUse"
       x1="0"
       y1="24"
       x2="48"
       y2="24"
       gradientTransform="matrix(1.192488e-008 -1 1 1.192488e-008 0 48)"><stop
         offset="0"
         style="stop-color:#2F2F36"
         id="stop2" /><stop
         offset="1"
         style="stop-color:#3B3B43"
         id="stop4" /></linearGradient><rect
       width="48"
       height="48"
       id="rect7"
       ry="8.0338984"
       x="0"
       y="0"
       style="clip-rule:evenodd;fill:url(#SVGID_1_);fill-rule:evenodd" /></g><g
     id="Layer_9"><rect
       x="24"
       y="1"
       fill-rule="evenodd"
       clip-rule="evenodd"
       fill="#717374"
       width="1"
       height="5"
       id="rect10" /></g><g
     id="Layer_9_copy"><rect
       x="24"
       y="41"
       fill-rule="evenodd"
       clip-rule="evenodd"
       fill="#717374"
       width="1"
       height="6"
       id="rect13" /></g><g
     id="Layer_1"><g
       id="g20"><g
         id="g18"><path
           fill-rule="evenodd"
           clip-rule="evenodd"
           fill="#EEEEEE"
           d="M36.731,13.5h-8.408l1.81,3.166h4.742l3.942,6.834l-3.942,6.834     h-4.742l-1.81,3.166h8.408l5.769-10L36.731,13.5z M32.094,23.5l-5.75-9.967l0.02-0.033h-3.721l0.019,0.033l-5.75,9.967     l5.75,9.968L22.643,33.5h3.721l-0.02-0.033L32.094,23.5z M20.594,23.5l3.909-6.775l3.908,6.775l-3.908,6.775L20.594,23.5z      M20.732,13.5h-3.67l-3.946,6.826L9.17,13.5H5.5l5.781,10L5.5,33.5h3.67l3.946-6.826l3.946,6.826h3.67l-5.781-10L20.732,13.5z"
           id="path16" /></g></g></g><g
     id="Layer_5"><g
       id="Layer_3"><g
         id="g27"><path
           fill-rule="evenodd"
           clip-rule="evenodd"
           fill="#262626"
           d="M24.5,14.204c-2.295,0-4.162-1.867-4.162-4.162     S22.205,5.88,24.5,5.88s4.162,1.867,4.162,4.162S26.795,14.204,24.5,14.204z"
           id="path23" /><path
           fill="#262626"
           d="M24.5,6.38c2.023,0,3.662,1.64,3.662,3.662s-1.639,3.662-3.662,3.662c-2.021,0-3.662-1.64-3.662-3.662     S22.479,6.38,24.5,6.38 M24.5,5.38c-2.571,0-4.662,2.091-4.662,4.662s2.091,4.662,4.662,4.662c2.57,0,4.662-2.091,4.662-4.662     S27.07,5.38,24.5,5.38L24.5,5.38z"
           id="path25" /></g></g><g
       id="Layer_3_copy"><g
         id="g34"><circle
           fill-rule="evenodd"
           clip-rule="evenodd"
           fill="#252525"
           cx="24.5"
           cy="10.042"
           r="3.062"
           id="circle30" /><path
           fill="#666666"
           d="M24.5,7.58c1.357,0,2.462,1.104,2.462,2.462s-1.104,2.462-2.462,2.462s-2.462-1.104-2.462-2.462     S23.143,7.58,24.5,7.58 M24.5,6.38c-2.021,0-3.662,1.64-3.662,3.662s1.641,3.662,3.662,3.662c2.023,0,3.662-1.64,3.662-3.662     S26.523,6.38,24.5,6.38L24.5,6.38z"
           id="path32" /></g></g></g><g
     id="Layer_5_copy"><g
       id="Layer_3_copy_2_1_"><g
         id="g42"><path
           fill-rule="evenodd"
           clip-rule="evenodd"
           fill="#262626"
           d="M24.5,41.204c-2.295,0-4.162-1.867-4.162-4.162     s1.867-4.162,4.162-4.162s4.162,1.867,4.162,4.162S26.795,41.204,24.5,41.204z"
           id="path38" /><path
           fill="#262626"
           d="M24.5,33.38c2.023,0,3.662,1.64,3.662,3.662s-1.639,3.662-3.662,3.662c-2.021,0-3.662-1.64-3.662-3.662     S22.479,33.38,24.5,33.38 M24.5,32.38c-2.571,0-4.662,2.091-4.662,4.662s2.091,4.662,4.662,4.662c2.57,0,4.662-2.091,4.662-4.662     S27.07,32.38,24.5,32.38L24.5,32.38z"
           id="path40" /></g></g><g
       id="Layer_3_copy_2"><g
         id="g49"><circle
           fill-rule="evenodd"
           clip-rule="evenodd"
           fill="#252525"
           cx="24.5"
           cy="37.042"
           r="3.062"
           id="circle45" /><path
           fill="#666666"
           d="M24.5,34.58c1.357,0,2.462,1.104,2.462,2.462s-1.104,2.462-2.462,2.462s-2.462-1.104-2.462-2.462     S23.143,34.58,24.5,34.58 M24.5,33.38c-2.021,0-3.662,1.64-3.662,3.662s1.641,3.662,3.662,3.662c2.023,0,3.662-1.64,3.662-3.662     S26.523,33.38,24.5,33.38L24.5,33.38z"
           id="path47" /></g></g></g></svg>