<?xml version="1.0" encoding="UTF-8" standalone="no"?>
<!-- Generator: Adobe Illustrator 16.0.0, SVG Export Plug-In . SVG Version: 6.00 Build 0)  -->

<svg
   xmlns:dc="http://purl.org/dc/elements/1.1/"
   xmlns:cc="http://creativecommons.org/ns#"
   xmlns:rdf="http://www.w3.org/1999/02/22-rdf-syntax-ns#"
   xmlns:svg="http://www.w3.org/2000/svg"
   xmlns="http://www.w3.org/2000/svg"
   xmlns:sodipodi="http://sodipodi.sourceforge.net/DTD/sodipodi-0.dtd"
   xmlns:inkscape="http://www.inkscape.org/namespaces/inkscape"
   version="1.0"
   id="Layer_2"
   x="0px"
   y="0px"
   width="600px"
   height="600px"
   viewBox="0 0 600 600"
   enable-background="new 0 0 600 600"
   xml:space="preserve"
   sodipodi:docname="guide.svg"
   inkscape:version="0.92.1 r"><metadata
     id="metadata9"><rdf:RDF><cc:Work
         rdf:about=""><dc:format>image/svg+xml</dc:format><dc:type
           rdf:resource="http://purl.org/dc/dcmitype/StillImage" /><dc:title></dc:title></cc:Work></rdf:RDF></metadata><defs
     id="defs7" /><sodipodi:namedview
     pagecolor="#ffffff"
     bordercolor="#666666"
     borderopacity="1"
     objecttolerance="10"
     gridtolerance="10"
     guidetolerance="10"
     inkscape:pageopacity="0"
     inkscape:pageshadow="2"
     inkscape:window-width="2137"
     inkscape:window-height="965"
     id="namedview5"
     showgrid="false"
     inkscape:zoom="0.39333333"
     inkscape:cx="229.22749"
     inkscape:cy="226.53651"
     inkscape:window-x="0"
     inkscape:window-y="27"
     inkscape:window-maximized="0"
     inkscape:current-layer="Layer_2" /><path
     d="M106.825,181.75h51.766c14.294,0,25.882-11.587,25.882-25.883   c0-14.294-11.587-25.882-25.882-25.882h-51.766c-14.295,0-25.882,11.587-25.882,25.882   C80.943,170.163,92.53,181.75,106.825,181.75z M184.472,444.27c0-14.294-11.587-25.881-25.882-25.881h-51.766   c-14.295,0-25.882,11.587-25.882,25.881c0,14.296,11.587,25.883,25.882,25.883h51.766   C172.885,470.152,184.472,458.565,184.472,444.27z M106.825,325.951h51.766c14.294,0,25.882-11.587,25.882-25.882   c0-14.295-11.587-25.883-25.882-25.883h-51.766c-14.295,0-25.882,11.587-25.882,25.883   C80.943,314.364,92.53,325.951,106.825,325.951z M517.244,93.011c-0.925-24.958-18.487-29.58-18.487-29.58   s-291.175,0.925-321.68,0c-30.504-0.924-22.185,29.58-22.185,29.58s63.597,2.219,62.857,62.856   c-0.74,60.639-66.555,59.16-66.555,59.16v25.882c0,0,69.511-4.438,66.555,59.16c-2.958,63.597-66.555,59.159-66.555,59.159   s0,15.53,0,25.882c13.31-0.74,67.294,4.438,66.555,59.159c-0.74,54.723-51.581,59.9-66.555,59.16   c-0.925,25.882,25.882,33.277,25.882,33.277s286.554,0,314.285,0c27.73,0,25.882-22.185,25.882-22.185   S518.169,117.968,517.244,93.011z M284.304,137.38h107.227c12.25,0,22.184,9.933,22.184,22.185s-9.934,22.185-22.184,22.185   H284.304c-12.251,0-22.185-9.934-22.185-22.185S272.053,137.38,284.304,137.38z M413.715,255.699H258.422   c-12.251,0-22.185-9.934-22.185-22.185c0-12.252,9.933-22.185,22.185-22.185h155.293c12.252,0,22.185,9.933,22.185,22.185   C435.9,245.766,425.967,255.699,413.715,255.699z"
     id="path2"
     clip-rule="evenodd"
     fill-rule="evenodd"
     fill="#CCCCCC"
     style="fill:#1a1a1a" /></svg>