<?xml version="1.0" encoding="UTF-8"?>
<svg width="14px" height="14px" viewBox="0 0 14 14" version="1.1" xmlns="http://www.w3.org/2000/svg" xmlns:xlink="http://www.w3.org/1999/xlink">
  <defs>
    <linearGradient x1="0%" y1="65%" x2="0%" y2="0%" id="grad">
      <stop stop-color="#CCCCCC" offset="0%"></stop>
      <stop stop-color="#CCCCCC" stop-opacity="0.3" offset="100%"></stop>
    </linearGradient>
  </defs>
  <g stroke="none" fill="#CCCCCC" fill-rule="evenodd">
    <g transform="translate(7.234928, 3.804138)">
        <path d="M3.22194653,8.5042815 L3.37501987,9.075559 C3.43468126,9.29821833 3.66196692,9.43085249 3.88265771,9.37171857 L6.11372131,8.77390688 C6.33438445,8.71478037 6.46493017,8.48626558 6.40526878,8.26360626 L6.25219544,7.69232875 C5.30564341,7.94595661 4.51643548,8.15742423 3.22194653,8.5042815 Z"></path>
        <path d="M4.77608366,2.03378173 L6.05751679,6.8161553 L3.02729552,7.62810064 L0.993183359,0.0366906991 L2.70318474,0.0366906991 L2.70318474,2.03378173 L4.77608366,2.03378173 Z" fill="url(#grad)"></path>
    </g>
    <g transform="translate(4.091679, 1.000000)">
        <path d="M3.1621524,1.02243328 L3.1621524,0.436378977 C3.1621524,0.207931678 2.97691094,0.0226902189 2.74846364,0.0226902189 L0.438696641,0.0226902189 C0.210249343,0.0226902189 0.0250078832,0.207931678 0.0250078832,0.436378977 L0.0250078832,1.02243328 L3.1621524,1.02243328 Z"></path>
        <path d="M0.0250364963,11 L0.0250364963,11.5860543 C0.0250364963,11.814473 0.210249343,11.9997145 0.438725254,11.9997145 L2.74849226,11.9997145 C2.97693955,11.9997145 3.16218101,11.814473 3.16218101,11.5860543 L3.16218101,11 C2.18223824,11 1.36519007,11 0.0250364963,11 Z"></path>
        <polygon points="0.0250364963 1.5 3.1621524 1.5 3.1621524 10.5 0.0250364963 10.5"></polygon>
    </g>
    <g transform="translate(0.000000, 1.000000)">
        <path d="M3.15142247,1.02243328 L3.15142247,0.436378977 C3.15142247,0.207931678 2.96620963,0.0226902189 2.73773372,0.0226902189 L0.427995327,0.0226902189 C0.199519416,0.0226902189 0.0143065693,0.207931678 0.0143065693,0.436378977 L0.0143065693,1.02243328 L3.15142247,1.02243328 Z"></path>
        <path d="M0.0143065693,11 L0.0143065693,11.5860543 C0.0143065693,11.814473 0.199519416,11.9997145 0.427995327,11.9997145 L2.73773372,11.9997145 C2.96620963,11.9997145 3.15142247,11.814473 3.15142247,11.5860543 L3.15142247,11 C2.17153693,11 1.35448876,11 0.0143065693,11 Z"></path>
        <polygon points="0.0143065693 1.5 3.15142247 1.5 3.15142247 10.5 0.0143065693 10.5"></polygon>
    </g>
    <polygon fill-rule="nonzero" points="10.9985241 5 10.9985241 3.01317902 9 3.01317902 9 1.98682098 10.9985241 1.98682098 10.9985241 0 11.9975593 0 11.9975593 1.98682098 14 1.98682098 14 3.01317902 11.9975593 3.01317902 11.9975593 5"></polygon>
  </g>
</svg>
