<?xml version="1.0" encoding="utf-8"?>
<!-- Generator: Adobe Illustrator 16.0.0, SVG Export Plug-In . SVG Version: 6.00 Build 0)  -->
<!DOCTYPE svg PUBLIC "-//W3C//DTD SVG 1.0//EN" "http://www.w3.org/TR/2001/REC-SVG-20010904/DTD/svg10.dtd">
<svg version="1.0" xmlns="http://www.w3.org/2000/svg" xmlns:xlink="http://www.w3.org/1999/xlink" x="0px" y="0px" width="14px"
	 height="14px" viewBox="0 0 14 14" enable-background="new 0 0 14 14" xml:space="preserve">
<g id="Layer_1">
	<g>
		<path fill-rule="evenodd" clip-rule="evenodd" fill="#AAAAAA" d="M4.066,3.809l1.912,0.259l3.906,3.988L13.814,4l-3.616-3.667
			l-0.31-0.317L8.165,0.008L4.066,3.809z"/>
		<g>
			<path fill="#AAAAAA" d="M5.875,12c-0.264,0-0.512-0.103-0.699-0.283L2.004,8.618c-0.386-0.376-0.386-0.989,0-1.366L9.14,0.283
				C9.327,0.101,9.575,0,9.84,0c0.264,0,0.513,0.101,0.698,0.283l3.173,3.097c0.385,0.376,0.385,0.989,0,1.366l-7.136,6.97
				C6.388,11.897,6.14,12,5.875,12z M9.84,0.516c-0.124,0-0.24,0.047-0.327,0.131l-7.135,6.97c-0.18,0.175-0.18,0.461,0,0.638
				l3.172,3.097c0.087,0.086,0.202,0.132,0.326,0.132s0.24-0.046,0.327-0.132l7.135-6.969c0.18-0.176,0.18-0.462,0-0.637
				l-3.17-3.099C10.079,0.563,9.962,0.516,9.84,0.516z"/>
		</g>
		<g>
			<g>
				<path fill="#AAAAAA" d="M4.826,11.928c-0.719,0-1.245-0.025-1.524-0.256l-0.02-0.019L0.286,8.615
					c-0.382-0.373-0.382-0.986,0.003-1.363l7.137-6.969c0.385-0.377,1.012-0.377,1.398,0l3.17,3.097
					c0.388,0.376,0.388,0.989,0,1.366l-0.371-0.364c0.18-0.176,0.18-0.462,0-0.637L8.451,0.647c-0.181-0.175-0.473-0.175-0.652,0
					l-7.136,6.97c-0.18,0.175-0.18,0.461,0,0.638l2.987,3.03c0.182,0.132,0.864,0.129,1.468,0.126c0.13,0,0.263-0.002,0.398,0
					l0,0.515c-0.135,0-0.267,0-0.396,0.002C5.018,11.928,4.92,11.928,4.826,11.928z"/>
			</g>
		</g>
	</g>
</g>
<g id="Layer_2">
	<rect y="12" fill="#AAAAAA" width="14" height="1"/>
</g>
</svg>
