<?xml version="1.0" encoding="utf-8"?>
<!-- Generator: Adobe Illustrator 16.0.0, SVG Export Plug-In . SVG Version: 6.00 Build 0)  -->
<!DOCTYPE svg PUBLIC "-//W3C//DTD SVG 1.0//EN" "http://www.w3.org/TR/2001/REC-SVG-20010904/DTD/svg10.dtd">
<svg version="1.0" id="Layer_1" xmlns="http://www.w3.org/2000/svg" xmlns:xlink="http://www.w3.org/1999/xlink" x="0px" y="0px"
	 width="14px" height="14px" viewBox="0 0 14 14" enable-background="new 0 0 14 14" xml:space="preserve">
<g>
	<g>
		<path fill="#AAAAAA" d="M13.833,7.598c-0.11-0.113-0.242-0.17-0.394-0.17h-1.96V4.804l1.514-1.545
			c0.111-0.113,0.167-0.247,0.167-0.402s-0.056-0.289-0.167-0.402c-0.11-0.113-0.242-0.169-0.394-0.169s-0.283,0.057-0.394,0.169
			L10.692,4H3.308L1.793,2.455C1.683,2.342,1.552,2.286,1.4,2.286c-0.151,0-0.283,0.057-0.394,0.169
			C0.896,2.568,0.84,2.702,0.84,2.857s0.056,0.289,0.167,0.402L2.52,4.804v2.625H0.56c-0.152,0-0.283,0.057-0.394,0.17
			C0.055,7.711,0,7.845,0,8c0,0.154,0.055,0.289,0.166,0.401c0.111,0.113,0.242,0.17,0.394,0.17h1.96
			c0,0.952,0.169,1.769,0.507,2.446L1.26,13.045c-0.1,0.118-0.145,0.257-0.136,0.415c0.009,0.157,0.068,0.29,0.179,0.396
			C1.415,13.952,1.54,14,1.68,14c0.163,0,0.303-0.063,0.42-0.188l1.601-1.849l0.131,0.125c0.082,0.078,0.208,0.175,0.381,0.29
			c0.172,0.116,0.364,0.232,0.577,0.349s0.467,0.215,0.761,0.295c0.295,0.08,0.591,0.121,0.888,0.121V6.036h1.12v7.107
			c0.28,0,0.563-0.039,0.848-0.117c0.286-0.077,0.525-0.163,0.718-0.259c0.192-0.095,0.382-0.203,0.569-0.325
			c0.187-0.122,0.309-0.207,0.367-0.255s0.102-0.086,0.131-0.116l1.732,1.759c0.105,0.113,0.236,0.17,0.394,0.17
			c0.158,0,0.289-0.057,0.395-0.17c0.11-0.113,0.166-0.247,0.166-0.401c0-0.155-0.056-0.289-0.166-0.402l-1.82-1.865
			c0.391-0.709,0.587-1.572,0.587-2.59h1.959c0.152,0,0.283-0.057,0.395-0.169C13.944,8.289,14,8.155,14,8
			C14,7.845,13.944,7.711,13.833,7.598z"/>
		<path fill="#AAAAAA" d="M8.982,0.835C8.437,0.278,7.776,0,7,0S5.563,0.278,5.018,0.835S4.2,2.065,4.2,2.857h5.6
			C9.8,2.066,9.527,1.392,8.982,0.835z"/>
	</g>
</g>
</svg>
