<?xml version="1.0" encoding="utf-8"?>
<!-- Generator: Adobe Illustrator 16.0.0, SVG Export Plug-In . SVG Version: 6.00 Build 0)  -->
<!DOCTYPE svg PUBLIC "-//W3C//DTD SVG 1.0//EN" "http://www.w3.org/TR/2001/REC-SVG-20010904/DTD/svg10.dtd">
<svg version="1.0" id="Layer_1" xmlns="http://www.w3.org/2000/svg" xmlns:xlink="http://www.w3.org/1999/xlink" x="0px" y="0px"
	 width="13px" height="13px" viewBox="0 0 13 13" enable-background="new 0 0 13 13" xml:space="preserve">
<path fill="#AAAAAA" d="M12.945,0.359C12.839,0.12,12.658,0,12.399,0H0.598C0.341,0,0.16,0.12,0.055,0.359
	c-0.104,0.253-0.061,0.469,0.129,0.646l4.545,4.551v4.487c0,0.163,0.058,0.299,0.176,0.416l2.358,2.363
	C7.377,12.938,7.513,13,7.682,13c0.072,0,0.148-0.016,0.23-0.045c0.237-0.106,0.357-0.287,0.357-0.546V5.557l4.544-4.551
	C13.007,0.828,13.048,0.612,12.945,0.359z"/>
</svg>
