<?xml version="1.0" encoding="utf-8"?>
<!-- Generator: Adobe Illustrator 16.0.0, SVG Export Plug-In . SVG Version: 6.00 Build 0)  -->
<!DOCTYPE svg PUBLIC "-//W3C//DTD SVG 1.0//EN" "http://www.w3.org/TR/2001/REC-SVG-20010904/DTD/svg10.dtd">
<svg version="1.0" id="Layer_2" xmlns="http://www.w3.org/2000/svg" xmlns:xlink="http://www.w3.org/1999/xlink" x="0px" y="0px"
	 width="600px" height="600px" viewBox="0 0 600 600" enable-background="new 0 0 600 600" xml:space="preserve">
	<path fill-rule="evenodd" clip-rule="evenodd" fill="#CCCCCC" d="M106.825,181.75h51.766c14.294,0,25.882-11.587,25.882-25.883
		c0-14.294-11.587-25.882-25.882-25.882h-51.766c-14.295,0-25.882,11.587-25.882,25.882
		C80.943,170.163,92.53,181.75,106.825,181.75z M184.472,444.27c0-14.294-11.587-25.881-25.882-25.881h-51.766
		c-14.295,0-25.882,11.587-25.882,25.881c0,14.296,11.587,25.883,25.882,25.883h51.766
		C172.885,470.152,184.472,458.565,184.472,444.27z M106.825,325.951h51.766c14.294,0,25.882-11.587,25.882-25.882
		c0-14.295-11.587-25.883-25.882-25.883h-51.766c-14.295,0-25.882,11.587-25.882,25.883
		C80.943,314.364,92.53,325.951,106.825,325.951z M517.244,93.011c-0.925-24.958-18.487-29.58-18.487-29.58
		s-291.175,0.925-321.68,0c-30.504-0.924-22.185,29.58-22.185,29.58s63.597,2.219,62.857,62.856
		c-0.74,60.639-66.555,59.16-66.555,59.16v25.882c0,0,69.511-4.438,66.555,59.16c-2.958,63.597-66.555,59.159-66.555,59.159
		s0,15.53,0,25.882c13.31-0.74,67.294,4.438,66.555,59.159c-0.74,54.723-51.581,59.9-66.555,59.16
		c-0.925,25.882,25.882,33.277,25.882,33.277s286.554,0,314.285,0c27.73,0,25.882-22.185,25.882-22.185
		S518.169,117.968,517.244,93.011z M284.304,137.38h107.227c12.25,0,22.184,9.933,22.184,22.185s-9.934,22.185-22.184,22.185
		H284.304c-12.251,0-22.185-9.934-22.185-22.185S272.053,137.38,284.304,137.38z M413.715,255.699H258.422
		c-12.251,0-22.185-9.934-22.185-22.185c0-12.252,9.933-22.185,22.185-22.185h155.293c12.252,0,22.185,9.933,22.185,22.185
		C435.9,245.766,425.967,255.699,413.715,255.699z"/>
</svg>
