<?xml version="1.0" encoding="UTF-8"?>
<svg width="15px" height="15px" viewBox="0 0 15 15" version="1.1" xmlns="http://www.w3.org/2000/svg" xmlns:xlink="http://www.w3.org/1999/xlink">
  <g stroke="none" stroke-width="1" fill-rule="evenodd" fill="#CCCCCC">
    <path d="M7.10294118,1.60294118 C3.74073061,1.60294118 1.01470588,4.3289659 1.01470588,7.69117647 C1.01470588,11.053387 3.74073061,13.7794118 7.10294118,13.7794118 C10.4651517,13.7794118 13.1911765,11.053387 13.1911765,7.69117647 C13.1911765,4.3289659 10.4651517,1.60294118 7.10294118,1.60294118 Z M7.10294118,0.602941176 C11.0174365,0.602941176 14.1911765,3.77668115 14.1911765,7.69117647 C14.1911765,11.6056718 11.0174365,14.7794118 7.10294118,14.7794118 C3.18844586,14.7794118 0.0147058824,11.6056718 0.0147058824,7.69117647 C0.0147058824,3.77668115 3.18844586,0.602941176 7.10294118,0.602941176 Z" fill-rule="nonzero"></path>
    <path d="M7.02552941,9.86611765 C6.80976471,9.86611765 6.63188235,9.93529412 6.49270588,10.0736471 C6.35352941,10.212 6.28270588,10.3907059 6.28270588,10.6089412 C6.28270588,10.8214118 6.35023529,10.9984706 6.48529412,11.1401176 C6.62035294,11.2817647 6.80070588,11.3525882 7.02552941,11.3525882 C7.25364706,11.3525882 7.43564706,11.2817647 7.57070588,11.1401176 C7.70576471,10.9984706 7.77329412,10.8214118 7.77329412,10.6089412 C7.77329412,10.3931765 7.70411765,10.2152941 7.56576471,10.0761176 C7.42741176,9.93694118 7.24788235,9.86611765 7.02552941,9.86611765 Z M8.49305882,4.67129412 C8.162,4.33858824 7.69670588,4.17223529 7.09882353,4.17223529 C6.51329412,4.17223529 6.04964706,4.34435294 5.70705882,4.68858824 C5.36447059,5.03282353 5.18905882,5.51623529 5.18247059,6.14047059 L6.54788235,6.14047059 C6.55447059,5.88929412 6.60882353,5.69 6.71176471,5.54176471 C6.81470588,5.39352941 6.94317647,5.31941176 7.098,5.31941176 C7.44552941,5.31941176 7.61929412,5.58788235 7.61929412,6.12564706 C7.61929412,6.29941176 7.57894118,6.47152941 7.49905882,6.642 C7.41917647,6.81247059 7.25776471,7.03152941 7.01647059,7.29835294 C6.78835294,7.53964706 6.62941176,7.79329412 6.54129412,8.05847059 C6.45317647,8.32364706 6.40870588,8.68188235 6.40870588,9.13235294 L7.60529412,9.13235294 C7.61188235,8.85894118 7.64235294,8.63741176 7.69670588,8.46858824 C7.75105882,8.29976471 7.84494118,8.13670588 7.97670588,7.97858824 L8.37694118,7.52482353 C8.78541176,7.04882353 8.98964706,6.56294118 8.98964706,6.06717647 C8.98964706,5.47011765 8.82411765,5.004 8.49305882,4.67129412 Z"></path>
  </g>
</svg>
