<?xml version="1.0" encoding="UTF-8"?>
<svg width="14px" height="11px" viewBox="0 0 14 11" version="1.1" xmlns="http://www.w3.org/2000/svg" xmlns:xlink="http://www.w3.org/1999/xlink">
  <g stroke="none" fill="#CCCCCC" fill-rule="evenodd">
    <polygon points="10.0114943 0.948275862 10.0114943 0 7 0 7 1 0 0.948275862 0 2 7 2 7 3 10.0114943 3 10.0114943 2 14 2 14 0.948275862"></polygon>
    <polygon points="5.01149425 4.94827586 5.01149425 4 2 4 2 5 0 4.94827586 0 6 2 6 2 7 5.01149425 7 5.01149425 6 14 6 14 4.94827586"></polygon>
    <polygon points="12.0114943 8.94827586 12.0114943 8 9 8 9 9 0 8.94827586 0 10 9 10 9 11 12.0114943 11 12.0114943 10 14 10 14 8.94827586"></polygon>
  </g>
</svg>
