<?xml version="1.0" encoding="UTF-8"?>
<svg width="14px" height="13px" viewBox="0 0 14 13" version="1.1" xmlns="http://www.w3.org/2000/svg" xmlns:xlink="http://www.w3.org/1999/xlink">
    <g stroke="none" fill="#f66061" fill-rule="evenodd">
      <g transform="translate(11.234928, 6.804138) rotate(-15.000000) translate(-11.234928, -6.804138) translate(9.234928, 0.804138)">
          <path d="M3.1621524,1.02243328 L3.1621524,0.436378977 C3.1621524,0.207931678 2.97691094,0.0226902189 2.74846364,0.0226902189 L0.438696641,0.0226902189 C0.210249343,0.0226902189 0.0250078832,0.207931678 0.0250078832,0.436378977 L0.0250078832,1.02243328 L3.1621524,1.02243328 Z"></path>
          <path d="M0.0250364963,11 L0.0250364963,11.5860543 C0.0250364963,11.814473 0.210249343,11.9997145 0.438725254,11.9997145 L2.74849226,11.9997145 C2.97693955,11.9997145 3.16218101,11.814473 3.16218101,11.5860543 L3.16218101,11 C2.18223824,11 1.36519007,11 0.0250364963,11 Z"></path>
          <polygon points="0.0250364963 1.5 3.1621524 1.5 3.1621524 10.5 0.0250364963 10.5"></polygon>
      </g>
      <path d="M7.2538314,2.02243328 L7.2538314,1.43637898 C7.2538314,1.20793168 7.06858994,1.02269022 6.84014264,1.02269022 L4.53037564,1.02269022 C4.30192834,1.02269022 4.11668688,1.20793168 4.11668688,1.43637898 L4.11668688,2.02243328 L7.2538314,2.02243328 Z"></path>
      <path d="M4.1167155,12 L4.1167155,12.5860543 C4.1167155,12.814473 4.30192834,12.9997145 4.53040425,12.9997145 L6.84017126,12.9997145 C7.06861855,12.9997145 7.25386001,12.814473 7.25386001,12.5860543 L7.25386001,12 C6.27391724,12 5.45686907,12 4.1167155,12 Z"></path>
      <polygon points="4.1167155 2.5 7.2538314 2.5 7.2538314 11.5 4.1167155 11.5"></polygon>
      <path d="M3.15142247,2.02243328 L3.15142247,1.43637898 C3.15142247,1.20793168 2.96620963,1.02269022 2.73773372,1.02269022 L0.427995327,1.02269022 C0.199519416,1.02269022 0.0143065693,1.20793168 0.0143065693,1.43637898 L0.0143065693,2.02243328 L3.15142247,2.02243328 Z"></path>
      <path d="M0.0143065693,12 L0.0143065693,12.5860543 C0.0143065693,12.814473 0.199519416,12.9997145 0.427995327,12.9997145 L2.73773372,12.9997145 C2.96620963,12.9997145 3.15142247,12.814473 3.15142247,12.5860543 L3.15142247,12 C2.17153693,12 1.35448876,12 0.0143065693,12 Z"></path>
      <polygon points="0.0143065693 2.5 3.15142247 2.5 3.15142247 11.5 0.0143065693 11.5"></polygon>
    </g>
</svg>
