<?xml version="1.0" encoding="UTF-8"?>
<svg width="14px" height="13px" viewBox="0 0 14 13" version="1.1" xmlns="http://www.w3.org/2000/svg" xmlns:xlink="http://www.w3.org/1999/xlink">
  <g stroke="none" fill="none" fill-rule="evenodd">
    <g transform="translate(11.234928, 6.804138) rotate(-15.000000) translate(-11.234928, -6.804138) translate(9.234928, 0.804138)" fill="#6965BD">
      <path d="M3.1621524,1.02243328 L3.1621524,0.436378977 C3.1621524,0.207931678 2.97691094,0.0226902189 2.74846364,0.0226902189 L0.438696641,0.0226902189 C0.210249343,0.0226902189 0.0250078832,0.207931678 0.0250078832,0.436378977 L0.0250078832,1.02243328 L3.1621524,1.02243328 Z"></path>
      <path d="M0.0250364963,11 L0.0250364963,11.5860543 C0.0250364963,11.814473 0.210249343,11.9997145 0.438725254,11.9997145 L2.74849226,11.9997145 C2.97693955,11.9997145 3.16218101,11.814473 3.16218101,11.5860543 L3.16218101,11 C2.18223824,11 1.36519007,11 0.0250364963,11 Z"></path>
      <polygon points="0.0250364963 1.5 3.1621524 1.5 3.1621524 10.5 0.0250364963 10.5"></polygon>
    </g>
    <g transform="translate(4.091679, 1.000000)" fill="#2E8F6C">
      <path d="M3.1621524,1.02243328 L3.1621524,0.436378977 C3.1621524,0.207931678 2.97691094,0.0226902189 2.74846364,0.0226902189 L0.438696641,0.0226902189 C0.210249343,0.0226902189 0.0250078832,0.207931678 0.0250078832,0.436378977 L0.0250078832,1.02243328 L3.1621524,1.02243328 Z"></path>
      <path d="M0.0250364963,11 L0.0250364963,11.5860543 C0.0250364963,11.814473 0.210249343,11.9997145 0.438725254,11.9997145 L2.74849226,11.9997145 C2.97693955,11.9997145 3.16218101,11.814473 3.16218101,11.5860543 L3.16218101,11 C2.18223824,11 1.36519007,11 0.0250364963,11 Z"></path>
      <polygon points="0.0250364963 1.5 3.1621524 1.5 3.1621524 10.5 0.0250364963 10.5"></polygon>
    </g>
    <g transform="translate(0.000000, 1.000000)" fill="#B99039">
      <path d="M3.15142247,1.02243328 L3.15142247,0.436378977 C3.15142247,0.207931678 2.96620963,0.0226902189 2.73773372,0.0226902189 L0.427995327,0.0226902189 C0.199519416,0.0226902189 0.0143065693,0.207931678 0.0143065693,0.436378977 L0.0143065693,1.02243328 L3.15142247,1.02243328 Z"></path>
      <path d="M0.0143065693,11 L0.0143065693,11.5860543 C0.0143065693,11.814473 0.199519416,11.9997145 0.427995327,11.9997145 L2.73773372,11.9997145 C2.96620963,11.9997145 3.15142247,11.814473 3.15142247,11.5860543 L3.15142247,11 C2.17153693,11 1.35448876,11 0.0143065693,11 Z"></path>
      <polygon points="0.0143065693 1.5 3.15142247 1.5 3.15142247 10.5 0.0143065693 10.5"></polygon>
    </g>
  </g>
</svg>
