<?xml version="1.0" encoding="UTF-8"?>
<svg width="11px" height="14px" viewBox="0 0 11 14" version="1.1" xmlns="http://www.w3.org/2000/svg" xmlns:xlink="http://www.w3.org/1999/xlink">
    <g stroke="none" fill="#f66061" fill-rule="evenodd">
        <path d="M5.432,2.06818191 C6.56727273,2.06818191 7.48681818,2.98836373 7.48681818,4.12363645 C7.48681818,5.25827282 6.56727273,6.17845464 5.432,6.17845464 C4.29672727,6.17845464 3.37654545,5.25827282 3.37654545,4.12363645 C3.37654545,2.98836373 4.29672727,2.06818191 5.432,2.06818191 Z"></path>
        <path d="M10.7112727,13.7944546 L10.7112727,12.3454546 L7.62745455,5.15200009 C7.62745455,5.15200009 7.34745455,6.44381827 5.712,6.73972736 C7.46390909,9.47290918 10.7112727,13.7944546 10.7112727,13.7944546 Z"></path>
        <path d="M0.106272727,13.8409092 L0.106272727,12.3931819 L3.18945455,5.19845464 C3.18945455,5.19845464 3.46945455,6.49090918 5.10490909,6.78681827 C3.353,9.51936373 0.106272727,13.8409092 0.106272727,13.8409092 Z"></path>
        <path d="M8.78731967,9.46889314 C8.41319423,9.73495095 8.00729378,9.95374978 7.57872026,10.1196118 C6.94271199,10.3657893 6.26499636,10.4938186 5.570091,10.4938186 C4.92249755,10.4938186 4.29052504,10.3831425 3.69500206,10.1693955 C3.21950763,9.99907767 2.77163308,9.76566584 2.36303151,9.47606875 L1.78478685,10.2919322 C2.26759958,10.6341265 2.79656037,10.9097968 3.35748543,11.110715 C4.06074721,11.3631321 4.80698135,11.4938186 5.570091,11.4938186 C6.38915551,11.4938186 7.18919543,11.3426807 7.9396667,11.0521983 C8.44590908,10.8562777 8.92521937,10.5979077 9.36686233,10.283835 L8.78731967,9.46889314 Z"></path>
        <rect id="Rectangle-path" x="4.454545" y="0" width="1.90909091" height="1.27272727"></rect>
    </g>
</svg>
