<?xml version="1.0" encoding="UTF-8"?>
<svg width="11px" height="14px" viewBox="0 0 11 14" version="1.1" xmlns="http://www.w3.org/2000/svg" xmlns:xlink="http://www.w3.org/1999/xlink">
  <g stroke="none" fill="#86CC23" fill-rule="evenodd">
    <g transform="translate(0.000000, 1.909091)">
      <path d="M5.432,0.159090909 C6.56727273,0.159090909 7.48681818,1.07927273 7.48681818,2.21454545 C7.48681818,3.34918182 6.56727273,4.26936364 5.432,4.26936364 C4.29672727,4.26936364 3.37654545,3.34918182 3.37654545,2.21454545 C3.37654545,1.07927273 4.29672727,0.159090909 5.432,0.159090909 Z" id="Shape"></path>
      <path d="M10.7112727,11.8853636 L10.7112727,10.4363636 L7.62745455,3.24290909 C7.62745455,3.24290909 7.34745455,4.53472727 5.712,4.83063636 C7.46390909,7.56381818 10.7112727,11.8853636 10.7112727,11.8853636 Z" id="Shape"></path>
      <path d="M0.106272727,11.9318182 L0.106272727,10.4840909 L3.18945455,3.28936364 C3.18945455,3.28936364 3.46945455,4.58181818 5.10490909,4.87772727 C3.353,7.61027273 0.106272727,11.9318182 0.106272727,11.9318182 Z" id="Shape"></path>
    </g>
    <g transform="translate(0.909091, 8.545455)" fill-rule="nonzero">
      <path d="M7.87822867,0.923438142 C7.50410323,1.18949595 7.09820278,1.40829478 6.66962926,1.57415679 C6.03362099,1.82033432 5.35590536,1.94836364 4.661,1.94836364 C4.01340655,1.94836364 3.38143404,1.8376875 2.78591106,1.62394047 C2.31041663,1.45362267 1.86254208,1.22021084 1.45394051,0.930613746 L0.875695852,1.74647716 C1.35850858,2.08867155 1.88746937,2.36434183 2.44839443,2.56525998 C3.15165621,2.81767708 3.89789035,2.94836364 4.661,2.94836364 C5.48006451,2.94836364 6.28010443,2.79722566 7.0305757,2.50674334 C7.53681808,2.31082274 8.01612837,2.05245266 8.45777133,1.73838004 L7.87822867,0.923438142 Z" id="Shape"></path>
    </g>
    <g transform="translate(4.454545, 0.000000)">
      <rect x="0" y="0" width="1.90909091" height="1.27272727"></rect>
    </g>
  </g>
</svg>
