<?xml version="1.0" encoding="UTF-8"?>
<svg width="12px" height="12px" viewBox="0 0 12 12" version="1.1" xmlns="http://www.w3.org/2000/svg" xmlns:xlink="http://www.w3.org/1999/xlink">
  <path d="M8.57616806,7.54707664 L8.03416041,7.54707664 L7.8418456,7.36212835 C8.51452765,6.57957146 8.91922561,5.56415685 8.91922561,4.45963989 C8.9192527,1.99665076 6.92262902,0 4.45961281,0 C1.99665076,0 0,1.99665076 0,4.45963989 C0,6.92262902 1.99665076,8.9192527 4.45961281,8.9192527 C5.56421101,8.9192527 6.57959854,8.51455474 7.36212835,7.84187268 L7.54702247,8.03418749 L7.54702247,8.57624931 L10.9775439,12.0000271 L12,10.9775709 L8.57616806,7.54707664 Z M4.45961281,7.54707664 C2.75112281,7.54707664 1.37217606,6.16821114 1.37217606,4.45963989 C1.37217606,2.75109572 2.75112281,1.37220314 4.45961281,1.37220314 C6.16815697,1.37220314 7.54704956,2.75109572 7.54704956,4.45963989 C7.54702247,6.16821114 6.16815697,7.54707664 4.45961281,7.54707664 Z" stroke="none" fill="#999999" fill-rule="nonzero"></path>
</svg>
