<?xml version="1.0" encoding="UTF-8" standalone="no"?>
<svg
   xmlns:dc="http://purl.org/dc/elements/1.1/"
   xmlns:cc="http://creativecommons.org/ns#"
   xmlns:rdf="http://www.w3.org/1999/02/22-rdf-syntax-ns#"
   xmlns:svg="http://www.w3.org/2000/svg"
   xmlns="http://www.w3.org/2000/svg"
   id="svg8"
   version="1.1"
   viewBox="0 0 8.4666659 8.4666659"
   height="32"
   width="32">
  <defs
     id="defs2" />
  <metadata
     id="metadata5">
    <rdf:RDF>
      <cc:Work
         rdf:about="">
        <dc:format>image/svg+xml</dc:format>
        <dc:type
           rdf:resource="http://purl.org/dc/dcmitype/StillImage" />
        <dc:title />
      </cc:Work>
    </rdf:RDF>
  </metadata>
  <g
     transform="translate(0,-288.53334)"
     id="layer1" />
  <path
     d="m 5.0309778,4.9899498 0.4352604,-0.069742 0.036455,-0.00151 0.4992342,0.1705763 v 0.405112 L 5.5026928,5.6649667 5.4662382,5.6634609 5.0309778,5.593719 4.848582,6.1550813 5.2417046,6.3544983 5.2720843,6.3747058 5.5757106,6.8061475 5.3375921,7.1338897 4.8334394,6.9784466 4.8048346,6.9557988 4.4936936,6.6435438 4.0161727,6.9904833 4.2170011,7.3828837 4.2296986,7.4170915 4.2217449,7.9446047 3.836458,8.0697909 3.5199595,7.6477 3.5101272,7.6125624 3.4419524,7.1770565 H 2.851702 L 2.7835272,7.6125624 2.7736949,7.6477 2.4571964,8.0697909 2.0719095,7.9446047 2.0639558,7.4170915 2.0766533,7.3828837 2.2774817,6.9904833 1.7999608,6.6435438 1.4888198,6.9557988 1.460215,6.9784466 0.95606228,7.1338897 0.71794376,6.8061475 1.0215701,6.3747058 1.0519498,6.3544983 1.4450724,6.1550813 1.2626766,5.593719 0.82741616,5.6634609 0.79096155,5.6649667 0.29172739,5.4943904 V 5.0892784 L 0.79096155,4.9187021 0.82741616,4.9202079 1.2626766,4.9899498 1.4450724,4.4285875 1.0519498,4.2291705 1.0215701,4.208963 0.71794376,3.7775213 0.95606228,3.4497791 1.460215,3.6052222 1.48882,3.6278702 1.799961,3.9401252 2.2774819,3.5931857 2.0766535,3.2007853 l -0.012697,-0.034208 0.00795,-0.5275132 0.3852869,-0.1251862 0.3164985,0.4220909 0.00983,0.035138 0.068175,0.4355059 h 0.5902504 l 0.068175,-0.4355059 0.00983,-0.035138 0.3164985,-0.4220909 0.3852869,0.1251862 0.00795,0.5275132 -0.012697,0.034208 -0.2008284,0.3924004 0.4775209,0.3469395 0.311141,-0.312255 0.028605,-0.022648 L 5.3375819,3.4497791 5.5757004,3.7775213 5.2720741,4.208963 5.2416941,4.22917 4.8485715,4.428587 Z"
     style="fill:#eeeeec;stroke:#000000;stroke-width:0.26458332"
     id="path1724" />
  <circle
     r="0.31222588"
     cy="5.2918329"
     cx="3.146827"
     style="fill:#ffffff;stroke:#000000;stroke-width:0.26458332"
     id="path1726" />
  <g
     style="fill:#eeeeec;stroke-width:2.11852479"
     transform="matrix(0.46898837,0.05346936,-0.05346936,0.46898837,6.223648,2.7359073)"
     id="g2420">
    <path
       d="m 2.05185,-0.4722 0.77711,-0.17883 0.04482,-0.00489 0.90237,0.33366 V 0.32226 L 2.87378,0.65592 2.82896,0.65103 2.05185,0.4722 1.64849,1.30979 2.27282,1.80585 2.30459,1.83785 2.60635,2.75139 2.10244,3.15324 1.27895,2.65577 1.25483,2.61768 0.91013,1.89861 0.00378,2.10548 0.00521,2.9029 0,2.94768 -0.52609,3.75318 -1.15445,3.60977 -1.27895,2.65577 -1.26421,2.61316 -0.91694,1.89534 -1.64378,1.3157 -2.26633,1.814 -2.30459,1.83785 -3.26237,1.92876 -3.54202,1.34806 -2.87378,0.65592 -2.83127,0.64088 -2.05354,0.46483 v -0.92966 l -0.77773,-0.17605 -0.04251,-0.01504 -0.66824,-0.69214 0.27965,-0.5807 0.95778,0.09091 0.03826,0.02385 0.62255,0.4983 0.72684,-0.57964 -0.34727,-0.71782 -0.01474,-0.04261 0.1245,-0.954 0.62836,-0.14341 0.52609,0.8055 0.00521,0.04478 -0.00143,0.79742 0.90635,0.20687 0.3447,-0.71907 0.02412,-0.03809 0.82349,-0.49747 0.50391,0.40185 -0.30176,0.91354 -0.03177,0.032 -0.62433,0.49606 z"
       style="fill:#eeeeec;stroke:#000000;stroke-width:0.56052637"
       id="path2418" />
  </g>
</svg>
